<?xml version="1.0" encoding="utf-8" standalone="no"?>
<!DOCTYPE svg PUBLIC "-//W3C//DTD SVG 1.1//EN"
  "http://www.w3.org/Graphics/SVG/1.1/DTD/svg11.dtd">
<!-- Created with matplotlib (https://matplotlib.org/) -->
<svg height="288pt" version="1.1" viewBox="0 0 432 288" width="432pt" xmlns="http://www.w3.org/2000/svg" xmlns:xlink="http://www.w3.org/1999/xlink">
 <defs>
  <style type="text/css">
*{stroke-linecap:butt;stroke-linejoin:round;}
  </style>
 </defs>
 <g id="figure_1">
  <g id="patch_1">
   <path d="M 0 288 
L 432 288 
L 432 0 
L 0 0 
z
" style="fill:#ffffff;"/>
  </g>
  <g id="patch_2">
   <path d="M 0 288 
L 432 288 
L 432 0 
L 0 0 
z
" style="fill:#ffffff;"/>
  </g>
  <g id="pane3d_1">
   <g id="patch_3">
    <path d="M 57.268276 224.36215 
L 180.908936 153.751075 
L 178.85045 18.824902 
L 48.316013 82.2675 
" style="fill:#f2f2f2;opacity:0.5;stroke:#f2f2f2;stroke-linejoin:miter;"/>
   </g>
  </g>
  <g id="pane3d_2">
   <g id="patch_4">
    <path d="M 180.908936 153.751075 
L 381.195181 193.227223 
L 389.574918 54.232405 
L 178.85045 18.824902 
" style="fill:#e6e6e6;opacity:0.5;stroke:#e6e6e6;stroke-linejoin:miter;"/>
   </g>
  </g>
  <g id="pane3d_3">
   <g id="patch_5">
    <path d="M 57.268276 224.36215 
L 267.996469 270.338555 
L 381.195181 193.227223 
L 180.908936 153.751075 
" style="fill:#ececec;opacity:0.5;stroke:#ececec;stroke-linejoin:miter;"/>
   </g>
  </g>
  <g id="axis3d_1">
   <g id="line2d_1">
    <path d="M 57.268276 224.36215 
L 267.996469 270.338555 
" style="fill:none;stroke:#000000;stroke-linecap:square;stroke-width:0.8;"/>
   </g>
   <g id="text_1">
    <!-- Code of staff -->
    <defs>
     <path d="M 64.40625 67.28125 
L 64.40625 56.890625 
Q 59.421875 61.53125 53.78125 63.8125 
Q 48.140625 66.109375 41.796875 66.109375 
Q 29.296875 66.109375 22.65625 58.46875 
Q 16.015625 50.828125 16.015625 36.375 
Q 16.015625 21.96875 22.65625 14.328125 
Q 29.296875 6.6875 41.796875 6.6875 
Q 48.140625 6.6875 53.78125 8.984375 
Q 59.421875 11.28125 64.40625 15.921875 
L 64.40625 5.609375 
Q 59.234375 2.09375 53.4375 0.328125 
Q 47.65625 -1.421875 41.21875 -1.421875 
Q 24.65625 -1.421875 15.125 8.703125 
Q 5.609375 18.84375 5.609375 36.375 
Q 5.609375 53.953125 15.125 64.078125 
Q 24.65625 74.21875 41.21875 74.21875 
Q 47.75 74.21875 53.53125 72.484375 
Q 59.328125 70.75 64.40625 67.28125 
z
" id="DejaVuSans-67"/>
     <path d="M 30.609375 48.390625 
Q 23.390625 48.390625 19.1875 42.75 
Q 14.984375 37.109375 14.984375 27.296875 
Q 14.984375 17.484375 19.15625 11.84375 
Q 23.34375 6.203125 30.609375 6.203125 
Q 37.796875 6.203125 41.984375 11.859375 
Q 46.1875 17.53125 46.1875 27.296875 
Q 46.1875 37.015625 41.984375 42.703125 
Q 37.796875 48.390625 30.609375 48.390625 
z
M 30.609375 56 
Q 42.328125 56 49.015625 48.375 
Q 55.71875 40.765625 55.71875 27.296875 
Q 55.71875 13.875 49.015625 6.21875 
Q 42.328125 -1.421875 30.609375 -1.421875 
Q 18.84375 -1.421875 12.171875 6.21875 
Q 5.515625 13.875 5.515625 27.296875 
Q 5.515625 40.765625 12.171875 48.375 
Q 18.84375 56 30.609375 56 
z
" id="DejaVuSans-111"/>
     <path d="M 45.40625 46.390625 
L 45.40625 75.984375 
L 54.390625 75.984375 
L 54.390625 0 
L 45.40625 0 
L 45.40625 8.203125 
Q 42.578125 3.328125 38.25 0.953125 
Q 33.9375 -1.421875 27.875 -1.421875 
Q 17.96875 -1.421875 11.734375 6.484375 
Q 5.515625 14.40625 5.515625 27.296875 
Q 5.515625 40.1875 11.734375 48.09375 
Q 17.96875 56 27.875 56 
Q 33.9375 56 38.25 53.625 
Q 42.578125 51.265625 45.40625 46.390625 
z
M 14.796875 27.296875 
Q 14.796875 17.390625 18.875 11.75 
Q 22.953125 6.109375 30.078125 6.109375 
Q 37.203125 6.109375 41.296875 11.75 
Q 45.40625 17.390625 45.40625 27.296875 
Q 45.40625 37.203125 41.296875 42.84375 
Q 37.203125 48.484375 30.078125 48.484375 
Q 22.953125 48.484375 18.875 42.84375 
Q 14.796875 37.203125 14.796875 27.296875 
z
" id="DejaVuSans-100"/>
     <path d="M 56.203125 29.59375 
L 56.203125 25.203125 
L 14.890625 25.203125 
Q 15.484375 15.921875 20.484375 11.0625 
Q 25.484375 6.203125 34.421875 6.203125 
Q 39.59375 6.203125 44.453125 7.46875 
Q 49.3125 8.734375 54.109375 11.28125 
L 54.109375 2.78125 
Q 49.265625 0.734375 44.1875 -0.34375 
Q 39.109375 -1.421875 33.890625 -1.421875 
Q 20.796875 -1.421875 13.15625 6.1875 
Q 5.515625 13.8125 5.515625 26.8125 
Q 5.515625 40.234375 12.765625 48.109375 
Q 20.015625 56 32.328125 56 
Q 43.359375 56 49.78125 48.890625 
Q 56.203125 41.796875 56.203125 29.59375 
z
M 47.21875 32.234375 
Q 47.125 39.59375 43.09375 43.984375 
Q 39.0625 48.390625 32.421875 48.390625 
Q 24.90625 48.390625 20.390625 44.140625 
Q 15.875 39.890625 15.1875 32.171875 
z
" id="DejaVuSans-101"/>
     <path id="DejaVuSans-32"/>
     <path d="M 37.109375 75.984375 
L 37.109375 68.5 
L 28.515625 68.5 
Q 23.6875 68.5 21.796875 66.546875 
Q 19.921875 64.59375 19.921875 59.515625 
L 19.921875 54.6875 
L 34.71875 54.6875 
L 34.71875 47.703125 
L 19.921875 47.703125 
L 19.921875 0 
L 10.890625 0 
L 10.890625 47.703125 
L 2.296875 47.703125 
L 2.296875 54.6875 
L 10.890625 54.6875 
L 10.890625 58.5 
Q 10.890625 67.625 15.140625 71.796875 
Q 19.390625 75.984375 28.609375 75.984375 
z
" id="DejaVuSans-102"/>
     <path d="M 44.28125 53.078125 
L 44.28125 44.578125 
Q 40.484375 46.53125 36.375 47.5 
Q 32.28125 48.484375 27.875 48.484375 
Q 21.1875 48.484375 17.84375 46.4375 
Q 14.5 44.390625 14.5 40.28125 
Q 14.5 37.15625 16.890625 35.375 
Q 19.28125 33.59375 26.515625 31.984375 
L 29.59375 31.296875 
Q 39.15625 29.25 43.1875 25.515625 
Q 47.21875 21.78125 47.21875 15.09375 
Q 47.21875 7.46875 41.1875 3.015625 
Q 35.15625 -1.421875 24.609375 -1.421875 
Q 20.21875 -1.421875 15.453125 -0.5625 
Q 10.6875 0.296875 5.421875 2 
L 5.421875 11.28125 
Q 10.40625 8.6875 15.234375 7.390625 
Q 20.0625 6.109375 24.8125 6.109375 
Q 31.15625 6.109375 34.5625 8.28125 
Q 37.984375 10.453125 37.984375 14.40625 
Q 37.984375 18.0625 35.515625 20.015625 
Q 33.0625 21.96875 24.703125 23.78125 
L 21.578125 24.515625 
Q 13.234375 26.265625 9.515625 29.90625 
Q 5.8125 33.546875 5.8125 39.890625 
Q 5.8125 47.609375 11.28125 51.796875 
Q 16.75 56 26.8125 56 
Q 31.78125 56 36.171875 55.265625 
Q 40.578125 54.546875 44.28125 53.078125 
z
" id="DejaVuSans-115"/>
     <path d="M 18.3125 70.21875 
L 18.3125 54.6875 
L 36.8125 54.6875 
L 36.8125 47.703125 
L 18.3125 47.703125 
L 18.3125 18.015625 
Q 18.3125 11.328125 20.140625 9.421875 
Q 21.96875 7.515625 27.59375 7.515625 
L 36.8125 7.515625 
L 36.8125 0 
L 27.59375 0 
Q 17.1875 0 13.234375 3.875 
Q 9.28125 7.765625 9.28125 18.015625 
L 9.28125 47.703125 
L 2.6875 47.703125 
L 2.6875 54.6875 
L 9.28125 54.6875 
L 9.28125 70.21875 
z
" id="DejaVuSans-116"/>
     <path d="M 34.28125 27.484375 
Q 23.390625 27.484375 19.1875 25 
Q 14.984375 22.515625 14.984375 16.5 
Q 14.984375 11.71875 18.140625 8.90625 
Q 21.296875 6.109375 26.703125 6.109375 
Q 34.1875 6.109375 38.703125 11.40625 
Q 43.21875 16.703125 43.21875 25.484375 
L 43.21875 27.484375 
z
M 52.203125 31.203125 
L 52.203125 0 
L 43.21875 0 
L 43.21875 8.296875 
Q 40.140625 3.328125 35.546875 0.953125 
Q 30.953125 -1.421875 24.3125 -1.421875 
Q 15.921875 -1.421875 10.953125 3.296875 
Q 6 8.015625 6 15.921875 
Q 6 25.140625 12.171875 29.828125 
Q 18.359375 34.515625 30.609375 34.515625 
L 43.21875 34.515625 
L 43.21875 35.40625 
Q 43.21875 41.609375 39.140625 45 
Q 35.0625 48.390625 27.6875 48.390625 
Q 23 48.390625 18.546875 47.265625 
Q 14.109375 46.140625 10.015625 43.890625 
L 10.015625 52.203125 
Q 14.9375 54.109375 19.578125 55.046875 
Q 24.21875 56 28.609375 56 
Q 40.484375 56 46.34375 49.84375 
Q 52.203125 43.703125 52.203125 31.203125 
z
" id="DejaVuSans-97"/>
    </defs>
    <g style="fill:#ff0000;" transform="translate(95.815575 269.588687)rotate(-347.692154)scale(0.15 -0.15)">
     <use xlink:href="#DejaVuSans-67"/>
     <use x="69.824219" xlink:href="#DejaVuSans-111"/>
     <use x="131.005859" xlink:href="#DejaVuSans-100"/>
     <use x="194.482422" xlink:href="#DejaVuSans-101"/>
     <use x="256.005859" xlink:href="#DejaVuSans-32"/>
     <use x="287.792969" xlink:href="#DejaVuSans-111"/>
     <use x="348.974609" xlink:href="#DejaVuSans-102"/>
     <use x="384.179688" xlink:href="#DejaVuSans-32"/>
     <use x="415.966797" xlink:href="#DejaVuSans-115"/>
     <use x="468.066406" xlink:href="#DejaVuSans-116"/>
     <use x="507.275391" xlink:href="#DejaVuSans-97"/>
     <use x="568.554688" xlink:href="#DejaVuSans-102"/>
     <use x="603.759766" xlink:href="#DejaVuSans-102"/>
    </g>
   </g>
   <g id="Line3DCollection_1">
    <path d="M 64.767582 225.998339 
L 188.059728 155.160487 
L 186.358129 20.086398 
" style="fill:none;stroke:#b0b0b0;stroke-width:0.8;"/>
    <path d="M 91.63516 231.860272 
L 213.664666 160.207185 
L 213.250547 24.605063 
" style="fill:none;stroke:#b0b0b0;stroke-width:0.8;"/>
    <path d="M 118.824545 237.792417 
L 239.55398 165.309934 
L 240.456862 29.176472 
" style="fill:none;stroke:#b0b0b0;stroke-width:0.8;"/>
    <path d="M 146.341554 243.796043 
L 265.732434 170.469672 
L 267.982601 33.801553 
" style="fill:none;stroke:#b0b0b0;stroke-width:0.8;"/>
    <path d="M 174.192144 249.872449 
L 292.204899 175.687359 
L 295.833425 38.481257 
" style="fill:none;stroke:#b0b0b0;stroke-width:0.8;"/>
    <path d="M 202.382418 256.022966 
L 318.976356 180.963977 
L 324.015125 43.216557 
" style="fill:none;stroke:#b0b0b0;stroke-width:0.8;"/>
    <path d="M 230.918629 262.24896 
L 346.051899 186.300529 
L 352.533633 48.008451 
" style="fill:none;stroke:#b0b0b0;stroke-width:0.8;"/>
    <path d="M 259.807183 268.551828 
L 373.43674 191.698044 
L 381.395024 52.857958 
" style="fill:none;stroke:#b0b0b0;stroke-width:0.8;"/>
   </g>
   <g id="xtick_1">
    <g id="line2d_2">
     <path d="M 65.829717 225.388086 
L 62.639354 227.221118 
" style="fill:none;stroke:#000000;stroke-linecap:square;stroke-width:0.8;"/>
    </g>
    <g id="text_2">
     <!-- 0 -->
     <defs>
      <path d="M 31.78125 66.40625 
Q 24.171875 66.40625 20.328125 58.90625 
Q 16.5 51.421875 16.5 36.375 
Q 16.5 21.390625 20.328125 13.890625 
Q 24.171875 6.390625 31.78125 6.390625 
Q 39.453125 6.390625 43.28125 13.890625 
Q 47.125 21.390625 47.125 36.375 
Q 47.125 51.421875 43.28125 58.90625 
Q 39.453125 66.40625 31.78125 66.40625 
z
M 31.78125 74.21875 
Q 44.046875 74.21875 50.515625 64.515625 
Q 56.984375 54.828125 56.984375 36.375 
Q 56.984375 17.96875 50.515625 8.265625 
Q 44.046875 -1.421875 31.78125 -1.421875 
Q 19.53125 -1.421875 13.0625 8.265625 
Q 6.59375 17.96875 6.59375 36.375 
Q 6.59375 54.828125 13.0625 64.515625 
Q 19.53125 74.21875 31.78125 74.21875 
z
" id="DejaVuSans-48"/>
     </defs>
     <g transform="translate(53.923941 246.57293)scale(0.1 -0.1)">
      <use xlink:href="#DejaVuSans-48"/>
     </g>
    </g>
   </g>
   <g id="xtick_2">
    <g id="line2d_3">
     <path d="M 92.686864 231.242734 
L 89.527809 233.097663 
" style="fill:none;stroke:#000000;stroke-linecap:square;stroke-width:0.8;"/>
    </g>
    <g id="text_3">
     <!-- 5 -->
     <defs>
      <path d="M 10.796875 72.90625 
L 49.515625 72.90625 
L 49.515625 64.59375 
L 19.828125 64.59375 
L 19.828125 46.734375 
Q 21.96875 47.46875 24.109375 47.828125 
Q 26.265625 48.1875 28.421875 48.1875 
Q 40.625 48.1875 47.75 41.5 
Q 54.890625 34.8125 54.890625 23.390625 
Q 54.890625 11.625 47.5625 5.09375 
Q 40.234375 -1.421875 26.90625 -1.421875 
Q 22.3125 -1.421875 17.546875 -0.640625 
Q 12.796875 0.140625 7.71875 1.703125 
L 7.71875 11.625 
Q 12.109375 9.234375 16.796875 8.0625 
Q 21.484375 6.890625 26.703125 6.890625 
Q 35.15625 6.890625 40.078125 11.328125 
Q 45.015625 15.765625 45.015625 23.390625 
Q 45.015625 31 40.078125 35.4375 
Q 35.15625 39.890625 26.703125 39.890625 
Q 22.75 39.890625 18.8125 39.015625 
Q 14.890625 38.140625 10.796875 36.28125 
z
" id="DejaVuSans-53"/>
     </defs>
     <g transform="translate(80.788733 252.521596)scale(0.1 -0.1)">
      <use xlink:href="#DejaVuSans-53"/>
     </g>
    </g>
   </g>
   <g id="xtick_3">
    <g id="line2d_4">
     <path d="M 119.865492 237.167463 
L 116.738727 239.044683 
" style="fill:none;stroke:#000000;stroke-linecap:square;stroke-width:0.8;"/>
    </g>
    <g id="text_4">
     <!-- 10 -->
     <defs>
      <path d="M 12.40625 8.296875 
L 28.515625 8.296875 
L 28.515625 63.921875 
L 10.984375 60.40625 
L 10.984375 69.390625 
L 28.421875 72.90625 
L 38.28125 72.90625 
L 38.28125 8.296875 
L 54.390625 8.296875 
L 54.390625 0 
L 12.40625 0 
z
" id="DejaVuSans-49"/>
     </defs>
     <g transform="translate(104.794564 258.541626)scale(0.1 -0.1)">
      <use xlink:href="#DejaVuSans-49"/>
      <use x="63.623047" xlink:href="#DejaVuSans-48"/>
     </g>
    </g>
   </g>
   <g id="xtick_4">
    <g id="line2d_5">
     <path d="M 147.371407 243.163538 
L 144.277942 245.063453 
" style="fill:none;stroke:#000000;stroke-linecap:square;stroke-width:0.8;"/>
    </g>
    <g id="text_5">
     <!-- 15 -->
     <g transform="translate(132.309772 264.634313)scale(0.1 -0.1)">
      <use xlink:href="#DejaVuSans-49"/>
      <use x="63.623047" xlink:href="#DejaVuSans-53"/>
     </g>
    </g>
   </g>
   <g id="xtick_5">
    <g id="line2d_6">
     <path d="M 175.210557 249.232255 
L 172.151433 251.155279 
" style="fill:none;stroke:#000000;stroke-linecap:square;stroke-width:0.8;"/>
    </g>
    <g id="text_6">
     <!-- 20 -->
     <defs>
      <path d="M 19.1875 8.296875 
L 53.609375 8.296875 
L 53.609375 0 
L 7.328125 0 
L 7.328125 8.296875 
Q 12.9375 14.109375 22.625 23.890625 
Q 32.328125 33.6875 34.8125 36.53125 
Q 39.546875 41.84375 41.421875 45.53125 
Q 43.3125 49.21875 43.3125 52.78125 
Q 43.3125 58.59375 39.234375 62.25 
Q 35.15625 65.921875 28.609375 65.921875 
Q 23.96875 65.921875 18.8125 64.3125 
Q 13.671875 62.703125 7.8125 59.421875 
L 7.8125 69.390625 
Q 13.765625 71.78125 18.9375 73 
Q 24.125 74.21875 28.421875 74.21875 
Q 39.75 74.21875 46.484375 68.546875 
Q 53.21875 62.890625 53.21875 53.421875 
Q 53.21875 48.921875 51.53125 44.890625 
Q 49.859375 40.875 45.40625 35.40625 
Q 44.1875 33.984375 37.640625 27.21875 
Q 31.109375 20.453125 19.1875 8.296875 
z
" id="DejaVuSans-50"/>
     </defs>
     <g transform="translate(160.15908 270.80098)scale(0.1 -0.1)">
      <use xlink:href="#DejaVuSans-50"/>
      <use x="63.623047" xlink:href="#DejaVuSans-48"/>
     </g>
    </g>
   </g>
   <g id="xtick_6">
    <g id="line2d_7">
     <path d="M 203.389034 255.374943 
L 200.365321 257.321501 
" style="fill:none;stroke:#000000;stroke-linecap:square;stroke-width:0.8;"/>
    </g>
    <g id="text_7">
     <!-- 25 -->
     <g transform="translate(188.348613 277.042983)scale(0.1 -0.1)">
      <use xlink:href="#DejaVuSans-50"/>
      <use x="63.623047" xlink:href="#DejaVuSans-53"/>
     </g>
    </g>
   </g>
   <g id="xtick_7">
    <g id="line2d_8">
     <path d="M 231.913082 261.592963 
L 228.925882 263.563489 
" style="fill:none;stroke:#000000;stroke-linecap:square;stroke-width:0.8;"/>
    </g>
    <g id="text_8">
     <!-- 30 -->
     <defs>
      <path d="M 40.578125 39.3125 
Q 47.65625 37.796875 51.625 33 
Q 55.609375 28.21875 55.609375 21.1875 
Q 55.609375 10.40625 48.1875 4.484375 
Q 40.765625 -1.421875 27.09375 -1.421875 
Q 22.515625 -1.421875 17.65625 -0.515625 
Q 12.796875 0.390625 7.625 2.203125 
L 7.625 11.71875 
Q 11.71875 9.328125 16.59375 8.109375 
Q 21.484375 6.890625 26.8125 6.890625 
Q 36.078125 6.890625 40.9375 10.546875 
Q 45.796875 14.203125 45.796875 21.1875 
Q 45.796875 27.640625 41.28125 31.265625 
Q 36.765625 34.90625 28.71875 34.90625 
L 20.21875 34.90625 
L 20.21875 43.015625 
L 29.109375 43.015625 
Q 36.375 43.015625 40.234375 45.921875 
Q 44.09375 48.828125 44.09375 54.296875 
Q 44.09375 59.90625 40.109375 62.90625 
Q 36.140625 65.921875 28.71875 65.921875 
Q 24.65625 65.921875 20.015625 65.03125 
Q 15.375 64.15625 9.8125 62.3125 
L 9.8125 71.09375 
Q 15.4375 72.65625 20.34375 73.4375 
Q 25.25 74.21875 29.59375 74.21875 
Q 40.828125 74.21875 47.359375 69.109375 
Q 53.90625 64.015625 53.90625 55.328125 
Q 53.90625 49.265625 50.4375 45.09375 
Q 46.96875 40.921875 40.578125 39.3125 
z
" id="DejaVuSans-51"/>
     </defs>
     <g transform="translate(216.884643 283.36171)scale(0.1 -0.1)">
      <use xlink:href="#DejaVuSans-51"/>
      <use x="63.623047" xlink:href="#DejaVuSans-48"/>
     </g>
    </g>
   </g>
   <g id="xtick_8">
    <g id="line2d_9">
     <path d="M 260.789095 267.887708 
L 257.839544 269.882648 
" style="fill:none;stroke:#000000;stroke-linecap:square;stroke-width:0.8;"/>
    </g>
    <g id="text_9">
     <!-- 35 -->
     <g transform="translate(245.773597 289.758586)scale(0.1 -0.1)">
      <use xlink:href="#DejaVuSans-51"/>
      <use x="63.623047" xlink:href="#DejaVuSans-53"/>
     </g>
    </g>
   </g>
  </g>
  <g id="axis3d_2">
   <g id="line2d_10">
    <path d="M 381.195181 193.227223 
L 267.996469 270.338555 
" style="fill:none;stroke:#000000;stroke-linecap:square;stroke-width:0.8;"/>
   </g>
   <g id="text_10">
    <!-- Type of staff -->
    <defs>
     <path d="M -0.296875 72.90625 
L 61.375 72.90625 
L 61.375 64.59375 
L 35.5 64.59375 
L 35.5 0 
L 25.59375 0 
L 25.59375 64.59375 
L -0.296875 64.59375 
z
" id="DejaVuSans-84"/>
     <path d="M 32.171875 -5.078125 
Q 28.375 -14.84375 24.75 -17.8125 
Q 21.140625 -20.796875 15.09375 -20.796875 
L 7.90625 -20.796875 
L 7.90625 -13.28125 
L 13.1875 -13.28125 
Q 16.890625 -13.28125 18.9375 -11.515625 
Q 21 -9.765625 23.484375 -3.21875 
L 25.09375 0.875 
L 2.984375 54.6875 
L 12.5 54.6875 
L 29.59375 11.921875 
L 46.6875 54.6875 
L 56.203125 54.6875 
z
" id="DejaVuSans-121"/>
     <path d="M 18.109375 8.203125 
L 18.109375 -20.796875 
L 9.078125 -20.796875 
L 9.078125 54.6875 
L 18.109375 54.6875 
L 18.109375 46.390625 
Q 20.953125 51.265625 25.265625 53.625 
Q 29.59375 56 35.59375 56 
Q 45.5625 56 51.78125 48.09375 
Q 58.015625 40.1875 58.015625 27.296875 
Q 58.015625 14.40625 51.78125 6.484375 
Q 45.5625 -1.421875 35.59375 -1.421875 
Q 29.59375 -1.421875 25.265625 0.953125 
Q 20.953125 3.328125 18.109375 8.203125 
z
M 48.6875 27.296875 
Q 48.6875 37.203125 44.609375 42.84375 
Q 40.53125 48.484375 33.40625 48.484375 
Q 26.265625 48.484375 22.1875 42.84375 
Q 18.109375 37.203125 18.109375 27.296875 
Q 18.109375 17.390625 22.1875 11.75 
Q 26.265625 6.109375 33.40625 6.109375 
Q 40.53125 6.109375 44.609375 11.75 
Q 48.6875 17.390625 48.6875 27.296875 
z
" id="DejaVuSans-112"/>
    </defs>
    <g style="fill:#ff0000;" transform="translate(319.024314 283.509717)rotate(-34.262819)scale(0.15 -0.15)">
     <use xlink:href="#DejaVuSans-84"/>
     <use x="45.458984" xlink:href="#DejaVuSans-121"/>
     <use x="104.638672" xlink:href="#DejaVuSans-112"/>
     <use x="168.115234" xlink:href="#DejaVuSans-101"/>
     <use x="229.638672" xlink:href="#DejaVuSans-32"/>
     <use x="261.425781" xlink:href="#DejaVuSans-111"/>
     <use x="322.607422" xlink:href="#DejaVuSans-102"/>
     <use x="357.8125" xlink:href="#DejaVuSans-32"/>
     <use x="389.599609" xlink:href="#DejaVuSans-115"/>
     <use x="441.699219" xlink:href="#DejaVuSans-116"/>
     <use x="480.908203" xlink:href="#DejaVuSans-97"/>
     <use x="542.1875" xlink:href="#DejaVuSans-102"/>
     <use x="577.392578" xlink:href="#DejaVuSans-102"/>
    </g>
   </g>
   <g id="Line3DCollection_2">
    <path d="M 57.254143 77.923372 
L 65.703663 219.544707 
L 275.743623 265.061169 
" style="fill:none;stroke:#b0b0b0;stroke-width:0.8;"/>
    <path d="M 81.302775 66.23521 
L 88.421976 206.570298 
L 296.590729 250.860052 
" style="fill:none;stroke:#b0b0b0;stroke-width:0.8;"/>
    <path d="M 104.688705 54.869135 
L 110.545546 193.935547 
L 316.867379 237.047531 
" style="fill:none;stroke:#b0b0b0;stroke-width:0.8;"/>
    <path d="M 127.438953 43.812016 
L 132.097424 181.627288 
L 336.596671 223.607873 
" style="fill:none;stroke:#b0b0b0;stroke-width:0.8;"/>
    <path d="M 149.57909 33.051424 
L 153.099487 169.633028 
L 355.800474 210.52618 
" style="fill:none;stroke:#b0b0b0;stroke-width:0.8;"/>
    <path d="M 171.133335 22.575588 
L 173.572511 157.940901 
L 374.499505 197.788339 
" style="fill:none;stroke:#b0b0b0;stroke-width:0.8;"/>
   </g>
   <g id="xtick_9">
    <g id="line2d_11">
     <path d="M 273.985773 264.680236 
L 279.263251 265.823885 
" style="fill:none;stroke:#000000;stroke-linecap:square;stroke-width:0.8;"/>
    </g>
    <g id="text_11">
     <!-- 1 -->
     <g transform="translate(285.86073 284.049744)scale(0.1 -0.1)">
      <use xlink:href="#DejaVuSans-49"/>
     </g>
    </g>
   </g>
   <g id="xtick_10">
    <g id="line2d_12">
     <path d="M 294.849606 250.489612 
L 300.076814 251.601747 
" style="fill:none;stroke:#000000;stroke-linecap:square;stroke-width:0.8;"/>
    </g>
    <g id="text_12">
     <!-- 2 -->
     <g transform="translate(306.514374 269.696875)scale(0.1 -0.1)">
      <use xlink:href="#DejaVuSans-50"/>
     </g>
    </g>
   </g>
   <g id="xtick_11">
    <g id="line2d_13">
     <path d="M 315.14273 236.687157 
L 320.320426 237.769063 
" style="fill:none;stroke:#000000;stroke-linecap:square;stroke-width:0.8;"/>
    </g>
    <g id="text_13">
     <!-- 3 -->
     <g transform="translate(326.603098 255.736587)scale(0.1 -0.1)">
      <use xlink:href="#DejaVuSans-51"/>
     </g>
    </g>
   </g>
   <g id="xtick_12">
    <g id="line2d_14">
     <path d="M 334.888248 223.25716 
L 340.017182 224.310052 
" style="fill:none;stroke:#000000;stroke-linecap:square;stroke-width:0.8;"/>
    </g>
    <g id="text_14">
     <!-- 4 -->
     <defs>
      <path d="M 37.796875 64.3125 
L 12.890625 25.390625 
L 37.796875 25.390625 
z
M 35.203125 72.90625 
L 47.609375 72.90625 
L 47.609375 25.390625 
L 58.015625 25.390625 
L 58.015625 17.1875 
L 47.609375 17.1875 
L 47.609375 0 
L 37.796875 0 
L 37.796875 17.1875 
L 4.890625 17.1875 
L 4.890625 26.703125 
z
" id="DejaVuSans-52"/>
     </defs>
     <g transform="translate(346.149766 242.15299)scale(0.1 -0.1)">
      <use xlink:href="#DejaVuSans-52"/>
     </g>
    </g>
   </g>
   <g id="xtick_13">
    <g id="line2d_15">
     <path d="M 354.108029 210.184744 
L 359.188944 211.209774 
" style="fill:none;stroke:#000000;stroke-linecap:square;stroke-width:0.8;"/>
    </g>
    <g id="text_15">
     <!-- 5 -->
     <g transform="translate(365.176026 228.931041)scale(0.1 -0.1)">
      <use xlink:href="#DejaVuSans-53"/>
     </g>
    </g>
   </g>
   <g id="xtick_14">
    <g id="line2d_16">
     <path d="M 372.822795 197.455817 
L 377.856427 198.454077 
" style="fill:none;stroke:#000000;stroke-linecap:square;stroke-width:0.8;"/>
    </g>
    <g id="text_16">
     <!-- 6 -->
     <defs>
      <path d="M 33.015625 40.375 
Q 26.375 40.375 22.484375 35.828125 
Q 18.609375 31.296875 18.609375 23.390625 
Q 18.609375 15.53125 22.484375 10.953125 
Q 26.375 6.390625 33.015625 6.390625 
Q 39.65625 6.390625 43.53125 10.953125 
Q 47.40625 15.53125 47.40625 23.390625 
Q 47.40625 31.296875 43.53125 35.828125 
Q 39.65625 40.375 33.015625 40.375 
z
M 52.59375 71.296875 
L 52.59375 62.3125 
Q 48.875 64.0625 45.09375 64.984375 
Q 41.3125 65.921875 37.59375 65.921875 
Q 27.828125 65.921875 22.671875 59.328125 
Q 17.53125 52.734375 16.796875 39.40625 
Q 19.671875 43.65625 24.015625 45.921875 
Q 28.375 48.1875 33.59375 48.1875 
Q 44.578125 48.1875 50.953125 41.515625 
Q 57.328125 34.859375 57.328125 23.390625 
Q 57.328125 12.15625 50.6875 5.359375 
Q 44.046875 -1.421875 33.015625 -1.421875 
Q 20.359375 -1.421875 13.671875 8.265625 
Q 6.984375 17.96875 6.984375 36.375 
Q 6.984375 53.65625 15.1875 63.9375 
Q 23.390625 74.21875 37.203125 74.21875 
Q 40.921875 74.21875 44.703125 73.484375 
Q 48.484375 72.75 52.59375 71.296875 
z
" id="DejaVuSans-54"/>
     </defs>
     <g transform="translate(383.702389 216.056487)scale(0.1 -0.1)">
      <use xlink:href="#DejaVuSans-54"/>
     </g>
    </g>
   </g>
  </g>
  <g id="axis3d_3">
   <g id="line2d_17">
    <path d="M 381.195181 193.227223 
L 389.574918 54.232405 
" style="fill:none;stroke:#000000;stroke-linecap:square;stroke-width:0.8;"/>
   </g>
   <g id="text_17">
    <!-- Working Time -->
    <defs>
     <path d="M 3.328125 72.90625 
L 13.28125 72.90625 
L 28.609375 11.28125 
L 43.890625 72.90625 
L 54.984375 72.90625 
L 70.3125 11.28125 
L 85.59375 72.90625 
L 95.609375 72.90625 
L 77.296875 0 
L 64.890625 0 
L 49.515625 63.28125 
L 33.984375 0 
L 21.578125 0 
z
" id="DejaVuSans-87"/>
     <path d="M 41.109375 46.296875 
Q 39.59375 47.171875 37.8125 47.578125 
Q 36.03125 48 33.890625 48 
Q 26.265625 48 22.1875 43.046875 
Q 18.109375 38.09375 18.109375 28.8125 
L 18.109375 0 
L 9.078125 0 
L 9.078125 54.6875 
L 18.109375 54.6875 
L 18.109375 46.1875 
Q 20.953125 51.171875 25.484375 53.578125 
Q 30.03125 56 36.53125 56 
Q 37.453125 56 38.578125 55.875 
Q 39.703125 55.765625 41.0625 55.515625 
z
" id="DejaVuSans-114"/>
     <path d="M 9.078125 75.984375 
L 18.109375 75.984375 
L 18.109375 31.109375 
L 44.921875 54.6875 
L 56.390625 54.6875 
L 27.390625 29.109375 
L 57.625 0 
L 45.90625 0 
L 18.109375 26.703125 
L 18.109375 0 
L 9.078125 0 
z
" id="DejaVuSans-107"/>
     <path d="M 9.421875 54.6875 
L 18.40625 54.6875 
L 18.40625 0 
L 9.421875 0 
z
M 9.421875 75.984375 
L 18.40625 75.984375 
L 18.40625 64.59375 
L 9.421875 64.59375 
z
" id="DejaVuSans-105"/>
     <path d="M 54.890625 33.015625 
L 54.890625 0 
L 45.90625 0 
L 45.90625 32.71875 
Q 45.90625 40.484375 42.875 44.328125 
Q 39.84375 48.1875 33.796875 48.1875 
Q 26.515625 48.1875 22.3125 43.546875 
Q 18.109375 38.921875 18.109375 30.90625 
L 18.109375 0 
L 9.078125 0 
L 9.078125 54.6875 
L 18.109375 54.6875 
L 18.109375 46.1875 
Q 21.34375 51.125 25.703125 53.5625 
Q 30.078125 56 35.796875 56 
Q 45.21875 56 50.046875 50.171875 
Q 54.890625 44.34375 54.890625 33.015625 
z
" id="DejaVuSans-110"/>
     <path d="M 45.40625 27.984375 
Q 45.40625 37.75 41.375 43.109375 
Q 37.359375 48.484375 30.078125 48.484375 
Q 22.859375 48.484375 18.828125 43.109375 
Q 14.796875 37.75 14.796875 27.984375 
Q 14.796875 18.265625 18.828125 12.890625 
Q 22.859375 7.515625 30.078125 7.515625 
Q 37.359375 7.515625 41.375 12.890625 
Q 45.40625 18.265625 45.40625 27.984375 
z
M 54.390625 6.78125 
Q 54.390625 -7.171875 48.1875 -13.984375 
Q 42 -20.796875 29.203125 -20.796875 
Q 24.46875 -20.796875 20.265625 -20.09375 
Q 16.0625 -19.390625 12.109375 -17.921875 
L 12.109375 -9.1875 
Q 16.0625 -11.328125 19.921875 -12.34375 
Q 23.78125 -13.375 27.78125 -13.375 
Q 36.625 -13.375 41.015625 -8.765625 
Q 45.40625 -4.15625 45.40625 5.171875 
L 45.40625 9.625 
Q 42.625 4.78125 38.28125 2.390625 
Q 33.9375 0 27.875 0 
Q 17.828125 0 11.671875 7.65625 
Q 5.515625 15.328125 5.515625 27.984375 
Q 5.515625 40.671875 11.671875 48.328125 
Q 17.828125 56 27.875 56 
Q 33.9375 56 38.28125 53.609375 
Q 42.625 51.21875 45.40625 46.390625 
L 45.40625 54.6875 
L 54.390625 54.6875 
z
" id="DejaVuSans-103"/>
     <path d="M 52 44.1875 
Q 55.375 50.25 60.0625 53.125 
Q 64.75 56 71.09375 56 
Q 79.640625 56 84.28125 50.015625 
Q 88.921875 44.046875 88.921875 33.015625 
L 88.921875 0 
L 79.890625 0 
L 79.890625 32.71875 
Q 79.890625 40.578125 77.09375 44.375 
Q 74.3125 48.1875 68.609375 48.1875 
Q 61.625 48.1875 57.5625 43.546875 
Q 53.515625 38.921875 53.515625 30.90625 
L 53.515625 0 
L 44.484375 0 
L 44.484375 32.71875 
Q 44.484375 40.625 41.703125 44.40625 
Q 38.921875 48.1875 33.109375 48.1875 
Q 26.21875 48.1875 22.15625 43.53125 
Q 18.109375 38.875 18.109375 30.90625 
L 18.109375 0 
L 9.078125 0 
L 9.078125 54.6875 
L 18.109375 54.6875 
L 18.109375 46.1875 
Q 21.1875 51.21875 25.484375 53.609375 
Q 29.78125 56 35.6875 56 
Q 41.65625 56 45.828125 52.96875 
Q 50 49.953125 52 44.1875 
z
" id="DejaVuSans-109"/>
    </defs>
    <g style="fill:#ff0000;" transform="translate(429.011949 173.175558)rotate(-86.549921)scale(0.15 -0.15)">
     <use xlink:href="#DejaVuSans-87"/>
     <use x="93.001953" xlink:href="#DejaVuSans-111"/>
     <use x="154.183594" xlink:href="#DejaVuSans-114"/>
     <use x="195.296875" xlink:href="#DejaVuSans-107"/>
     <use x="253.207031" xlink:href="#DejaVuSans-105"/>
     <use x="280.990234" xlink:href="#DejaVuSans-110"/>
     <use x="344.369141" xlink:href="#DejaVuSans-103"/>
     <use x="407.845703" xlink:href="#DejaVuSans-32"/>
     <use x="439.632812" xlink:href="#DejaVuSans-84"/>
     <use x="497.591797" xlink:href="#DejaVuSans-105"/>
     <use x="525.375" xlink:href="#DejaVuSans-109"/>
     <use x="622.787109" xlink:href="#DejaVuSans-101"/>
    </g>
   </g>
   <g id="Line3DCollection_3">
    <path d="M 381.646585 185.739776 
L 180.797819 146.467807 
L 56.786815 216.720177 
" style="fill:none;stroke:#b0b0b0;stroke-width:0.8;"/>
    <path d="M 382.790865 166.759585 
L 180.516264 128.012856 
L 55.565944 197.341925 
" style="fill:none;stroke:#b0b0b0;stroke-width:0.8;"/>
    <path d="M 383.95165 147.505626 
L 180.230818 109.302935 
L 54.326878 177.674858 
" style="fill:none;stroke:#b0b0b0;stroke-width:0.8;"/>
    <path d="M 385.1293 127.971932 
L 179.941401 90.332723 
L 53.069205 157.712469 
" style="fill:none;stroke:#b0b0b0;stroke-width:0.8;"/>
    <path d="M 386.324185 108.152363 
L 179.647929 71.09675 
L 51.792504 137.448058 
" style="fill:none;stroke:#b0b0b0;stroke-width:0.8;"/>
    <path d="M 387.536685 88.040596 
L 179.350318 51.589392 
L 50.49634 116.874718 
" style="fill:none;stroke:#b0b0b0;stroke-width:0.8;"/>
    <path d="M 388.767194 67.630122 
L 179.048477 31.804865 
L 49.180265 95.985329 
" style="fill:none;stroke:#b0b0b0;stroke-width:0.8;"/>
   </g>
   <g id="xtick_15">
    <g id="line2d_18">
     <path d="M 379.970663 185.412083 
L 385.001923 186.395846 
" style="fill:none;stroke:#000000;stroke-linecap:square;stroke-width:0.8;"/>
    </g>
    <g id="text_18">
     <!-- 0 -->
     <g transform="translate(397.719719 191.502011)scale(0.1 -0.1)">
      <use xlink:href="#DejaVuSans-48"/>
     </g>
    </g>
   </g>
   <g id="xtick_16">
    <g id="line2d_19">
     <path d="M 381.102547 166.436179 
L 386.171045 167.407076 
" style="fill:none;stroke:#000000;stroke-linecap:square;stroke-width:0.8;"/>
    </g>
    <g id="text_19">
     <!-- 20 -->
     <g transform="translate(395.818106 172.545864)scale(0.1 -0.1)">
      <use xlink:href="#DejaVuSans-50"/>
      <use x="63.623047" xlink:href="#DejaVuSans-48"/>
     </g>
    </g>
   </g>
   <g id="xtick_17">
    <g id="line2d_20">
     <path d="M 382.250752 147.186665 
L 387.357043 148.144221 
" style="fill:none;stroke:#000000;stroke-linecap:square;stroke-width:0.8;"/>
    </g>
    <g id="text_20">
     <!-- 40 -->
     <g transform="translate(397.116164 153.316834)scale(0.1 -0.1)">
      <use xlink:href="#DejaVuSans-52"/>
      <use x="63.623047" xlink:href="#DejaVuSans-48"/>
     </g>
    </g>
   </g>
   <g id="xtick_18">
    <g id="line2d_21">
     <path d="M 383.415632 127.657581 
L 388.560284 128.601304 
" style="fill:none;stroke:#000000;stroke-linecap:square;stroke-width:0.8;"/>
    </g>
    <g id="text_21">
     <!-- 60 -->
     <g transform="translate(398.433043 133.808988)scale(0.1 -0.1)">
      <use xlink:href="#DejaVuSans-54"/>
      <use x="63.623047" xlink:href="#DejaVuSans-48"/>
     </g>
    </g>
   </g>
   <g id="xtick_19">
    <g id="line2d_22">
     <path d="M 384.597555 107.84279 
L 389.781147 108.772172 
" style="fill:none;stroke:#000000;stroke-linecap:square;stroke-width:0.8;"/>
    </g>
    <g id="text_22">
     <!-- 80 -->
     <defs>
      <path d="M 31.78125 34.625 
Q 24.75 34.625 20.71875 30.859375 
Q 16.703125 27.09375 16.703125 20.515625 
Q 16.703125 13.921875 20.71875 10.15625 
Q 24.75 6.390625 31.78125 6.390625 
Q 38.8125 6.390625 42.859375 10.171875 
Q 46.921875 13.96875 46.921875 20.515625 
Q 46.921875 27.09375 42.890625 30.859375 
Q 38.875 34.625 31.78125 34.625 
z
M 21.921875 38.8125 
Q 15.578125 40.375 12.03125 44.71875 
Q 8.5 49.078125 8.5 55.328125 
Q 8.5 64.0625 14.71875 69.140625 
Q 20.953125 74.21875 31.78125 74.21875 
Q 42.671875 74.21875 48.875 69.140625 
Q 55.078125 64.0625 55.078125 55.328125 
Q 55.078125 49.078125 51.53125 44.71875 
Q 48 40.375 41.703125 38.8125 
Q 48.828125 37.15625 52.796875 32.3125 
Q 56.78125 27.484375 56.78125 20.515625 
Q 56.78125 9.90625 50.3125 4.234375 
Q 43.84375 -1.421875 31.78125 -1.421875 
Q 19.734375 -1.421875 13.25 4.234375 
Q 6.78125 9.90625 6.78125 20.515625 
Q 6.78125 27.484375 10.78125 32.3125 
Q 14.796875 37.15625 21.921875 38.8125 
z
M 18.3125 54.390625 
Q 18.3125 48.734375 21.84375 45.5625 
Q 25.390625 42.390625 31.78125 42.390625 
Q 38.140625 42.390625 41.71875 45.5625 
Q 45.3125 48.734375 45.3125 54.390625 
Q 45.3125 60.0625 41.71875 63.234375 
Q 38.140625 66.40625 31.78125 66.40625 
Q 25.390625 66.40625 21.84375 63.234375 
Q 18.3125 60.0625 18.3125 54.390625 
z
" id="DejaVuSans-56"/>
     </defs>
     <g transform="translate(399.769156 114.016215)scale(0.1 -0.1)">
      <use xlink:href="#DejaVuSans-56"/>
      <use x="63.623047" xlink:href="#DejaVuSans-48"/>
     </g>
    </g>
   </g>
   <g id="xtick_20">
    <g id="line2d_23">
     <path d="M 385.796896 87.735977 
L 391.020023 88.650491 
" style="fill:none;stroke:#000000;stroke-linecap:square;stroke-width:0.8;"/>
    </g>
    <g id="text_23">
     <!-- 100 -->
     <g transform="translate(397.943678 93.932228)scale(0.1 -0.1)">
      <use xlink:href="#DejaVuSans-49"/>
      <use x="63.623047" xlink:href="#DejaVuSans-48"/>
      <use x="127.246094" xlink:href="#DejaVuSans-48"/>
     </g>
    </g>
   </g>
   <g id="xtick_21">
    <g id="line2d_24">
     <path d="M 387.014044 67.330639 
L 392.277311 68.229739 
" style="fill:none;stroke:#000000;stroke-linecap:square;stroke-width:0.8;"/>
    </g>
    <g id="text_24">
     <!-- 120 -->
     <g transform="translate(399.319545 73.550553)scale(0.1 -0.1)">
      <use xlink:href="#DejaVuSans-49"/>
      <use x="63.623047" xlink:href="#DejaVuSans-50"/>
      <use x="127.246094" xlink:href="#DejaVuSans-48"/>
     </g>
    </g>
   </g>
  </g>
  <g id="axes_1">
   <g id="Path3DCollection_1">
    <defs>
     <path d="M 0 2.236068 
C 0.593012 2.236068 1.161816 2.000462 1.581139 1.581139 
C 2.000462 1.161816 2.236068 0.593012 2.236068 0 
C 2.236068 -0.593012 2.000462 -1.161816 1.581139 -1.581139 
C 1.161816 -2.000462 0.593012 -2.236068 0 -2.236068 
C -0.593012 -2.236068 -1.161816 -2.000462 -1.581139 -1.581139 
C -2.000462 -1.161816 -2.236068 -0.593012 -2.236068 0 
C -2.236068 0.593012 -2.000462 1.161816 -1.581139 1.581139 
C -1.161816 2.000462 -0.593012 2.236068 0 2.236068 
z
" id="C0_0_4e36e43d39"/>
    </defs>
    <g clip-path="url(#p7be75723a5)">
     <use style="fill:#1f77b4;fill-opacity:0.3;stroke:#1f77b4;stroke-opacity:0.3;" x="78.040692" xlink:href="#C0_0_4e36e43d39" y="213.727376"/>
    </g>
    <g clip-path="url(#p7be75723a5)">
     <use style="fill:#1f77b4;fill-opacity:0.375628;stroke:#1f77b4;stroke-opacity:0.375628;" x="77.987971" xlink:href="#C0_0_4e36e43d39" y="212.76578"/>
    </g>
    <g clip-path="url(#p7be75723a5)">
     <use style="fill:#1f77b4;fill-opacity:0.451311;stroke:#1f77b4;stroke-opacity:0.451311;" x="77.935211" xlink:href="#C0_0_4e36e43d39" y="211.803479"/>
    </g>
    <g clip-path="url(#p7be75723a5)">
     <use style="fill:#1f77b4;fill-opacity:0.847883;stroke:#1f77b4;stroke-opacity:0.847883;" x="83.198507" xlink:href="#C0_0_4e36e43d39" y="211.025641"/>
    </g>
    <g clip-path="url(#p7be75723a5)">
     <use style="fill:#1f77b4;fill-opacity:0.923914;stroke:#1f77b4;stroke-opacity:0.923914;" x="83.147542" xlink:href="#C0_0_4e36e43d39" y="210.060497"/>
    </g>
    <g clip-path="url(#p7be75723a5)">
     <use style="fill:#1f77b4;stroke:#1f77b4;" x="83.096539" xlink:href="#C0_0_4e36e43d39" y="209.094643"/>
    </g>
   </g>
   <g id="Path3DCollection_2">
    <defs>
     <path d="M 0 2.236068 
C 0.593012 2.236068 1.161816 2.000462 1.581139 1.581139 
C 2.000462 1.161816 2.236068 0.593012 2.236068 0 
C 2.236068 -0.593012 2.000462 -1.161816 1.581139 -1.581139 
C 1.161816 -2.000462 0.593012 -2.236068 0 -2.236068 
C -0.593012 -2.236068 -1.161816 -2.000462 -1.581139 -1.581139 
C -2.000462 -1.161816 -2.236068 -0.593012 -2.236068 0 
C -2.236068 0.593012 -2.000462 1.161816 -1.581139 1.581139 
C -1.161816 2.000462 -0.593012 2.236068 0 2.236068 
z
" id="C1_0_9f8020a532"/>
    </defs>
    <g clip-path="url(#p7be75723a5)">
     <use style="fill:#2ca02c;fill-opacity:0.3;stroke:#2ca02c;stroke-opacity:0.3;" x="191.795432" xlink:href="#C1_0_9f8020a532" y="155.89871"/>
    </g>
    <g clip-path="url(#p7be75723a5)">
     <use style="fill:#2ca02c;fill-opacity:0.533161;stroke:#2ca02c;stroke-opacity:0.533161;" x="191.784351" xlink:href="#C1_0_9f8020a532" y="154.910054"/>
    </g>
    <g clip-path="url(#p7be75723a5)">
     <use style="fill:#2ca02c;fill-opacity:0.766494;stroke:#2ca02c;stroke-opacity:0.766494;" x="191.773263" xlink:href="#C1_0_9f8020a532" y="153.920668"/>
    </g>
    <g clip-path="url(#p7be75723a5)">
     <use style="fill:#2ca02c;stroke:#2ca02c;" x="191.762166" xlink:href="#C1_0_9f8020a532" y="152.930551"/>
    </g>
   </g>
   <g id="Path3DCollection_3">
    <defs>
     <path d="M 0 2.236068 
C 0.593012 2.236068 1.161816 2.000462 1.581139 1.581139 
C 2.000462 1.161816 2.236068 0.593012 2.236068 0 
C 2.236068 -0.593012 2.000462 -1.161816 1.581139 -1.581139 
C 1.161816 -2.000462 0.593012 -2.236068 0 -2.236068 
C -0.593012 -2.236068 -1.161816 -2.000462 -1.581139 -1.581139 
C -2.000462 -1.161816 -2.236068 -0.593012 -2.236068 0 
C -2.236068 0.593012 -2.000462 1.161816 -1.581139 1.581139 
C -1.161816 2.000462 -0.593012 2.236068 0 2.236068 
z
" id="C2_0_4671e54b0c"/>
    </defs>
    <g clip-path="url(#p7be75723a5)">
     <use style="fill:#ff7f0e;fill-opacity:0.3;stroke:#ff7f0e;stroke-opacity:0.3;" x="116.411771" xlink:href="#C2_0_4671e54b0c" y="196.459447"/>
    </g>
    <g clip-path="url(#p7be75723a5)">
     <use style="fill:#ff7f0e;fill-opacity:0.314847;stroke:#ff7f0e;stroke-opacity:0.314847;" x="116.373389" xlink:href="#C2_0_4671e54b0c" y="195.498292"/>
    </g>
    <g clip-path="url(#p7be75723a5)">
     <use style="fill:#ff7f0e;fill-opacity:0.329706;stroke:#ff7f0e;stroke-opacity:0.329706;" x="116.334979" xlink:href="#C2_0_4671e54b0c" y="194.536437"/>
    </g>
    <g clip-path="url(#p7be75723a5)">
     <use style="fill:#ff7f0e;fill-opacity:0.344575;stroke:#ff7f0e;stroke-opacity:0.344575;" x="116.29654" xlink:href="#C2_0_4671e54b0c" y="193.573881"/>
    </g>
    <g clip-path="url(#p7be75723a5)">
     <use style="fill:#ff7f0e;fill-opacity:0.40756;stroke:#ff7f0e;stroke-opacity:0.40756;" x="121.634621" xlink:href="#C2_0_4671e54b0c" y="193.731113"/>
    </g>
    <g clip-path="url(#p7be75723a5)">
     <use style="fill:#ff7f0e;fill-opacity:0.422486;stroke:#ff7f0e;stroke-opacity:0.422486;" x="121.598044" xlink:href="#C2_0_4671e54b0c" y="192.766426"/>
    </g>
    <g clip-path="url(#p7be75723a5)">
     <use style="fill:#ff7f0e;fill-opacity:0.437423;stroke:#ff7f0e;stroke-opacity:0.437423;" x="121.56144" xlink:href="#C2_0_4671e54b0c" y="191.801035"/>
    </g>
    <g clip-path="url(#p7be75723a5)">
     <use style="fill:#ff7f0e;fill-opacity:0.45237;stroke:#ff7f0e;stroke-opacity:0.45237;" x="121.52481" xlink:href="#C2_0_4671e54b0c" y="190.834938"/>
    </g>
    <g clip-path="url(#p7be75723a5)">
     <use style="fill:#ff7f0e;fill-opacity:0.515689;stroke:#ff7f0e;stroke-opacity:0.515689;" x="126.885094" xlink:href="#C2_0_4671e54b0c" y="190.98835"/>
    </g>
    <g clip-path="url(#p7be75723a5)">
     <use style="fill:#ff7f0e;fill-opacity:0.530694;stroke:#ff7f0e;stroke-opacity:0.530694;" x="126.850342" xlink:href="#C2_0_4671e54b0c" y="190.020107"/>
    </g>
    <g clip-path="url(#p7be75723a5)">
     <use style="fill:#ff7f0e;fill-opacity:0.545709;stroke:#ff7f0e;stroke-opacity:0.545709;" x="126.815564" xlink:href="#C2_0_4671e54b0c" y="189.051155"/>
    </g>
    <g clip-path="url(#p7be75723a5)">
     <use style="fill:#ff7f0e;fill-opacity:0.560736;stroke:#ff7f0e;stroke-opacity:0.560736;" x="126.780761" xlink:href="#C2_0_4671e54b0c" y="188.081493"/>
    </g>
    <g clip-path="url(#p7be75723a5)">
     <use style="fill:#ff7f0e;fill-opacity:0.624391;stroke:#ff7f0e;stroke-opacity:0.624391;" x="132.16341" xlink:href="#C2_0_4671e54b0c" y="188.231041"/>
    </g>
    <g clip-path="url(#p7be75723a5)">
     <use style="fill:#ff7f0e;fill-opacity:0.639475;stroke:#ff7f0e;stroke-opacity:0.639475;" x="132.130502" xlink:href="#C2_0_4671e54b0c" y="187.259219"/>
    </g>
    <g clip-path="url(#p7be75723a5)">
     <use style="fill:#ff7f0e;fill-opacity:0.654571;stroke:#ff7f0e;stroke-opacity:0.654571;" x="132.097571" xlink:href="#C2_0_4671e54b0c" y="186.286682"/>
    </g>
    <g clip-path="url(#p7be75723a5)">
     <use style="fill:#ff7f0e;fill-opacity:0.669678;stroke:#ff7f0e;stroke-opacity:0.669678;" x="132.064615" xlink:href="#C2_0_4671e54b0c" y="185.313432"/>
    </g>
    <g clip-path="url(#p7be75723a5)">
     <use style="fill:#ff7f0e;fill-opacity:0.733671;stroke:#ff7f0e;stroke-opacity:0.733671;" x="137.46979" xlink:href="#C2_0_4671e54b0c" y="185.459073"/>
    </g>
    <g clip-path="url(#p7be75723a5)">
     <use style="fill:#ff7f0e;fill-opacity:0.748836;stroke:#ff7f0e;stroke-opacity:0.748836;" x="137.438747" xlink:href="#C2_0_4671e54b0c" y="184.483646"/>
    </g>
    <g clip-path="url(#p7be75723a5)">
     <use style="fill:#ff7f0e;fill-opacity:0.764012;stroke:#ff7f0e;stroke-opacity:0.764012;" x="137.407682" xlink:href="#C2_0_4671e54b0c" y="183.5075"/>
    </g>
    <g clip-path="url(#p7be75723a5)">
     <use style="fill:#ff7f0e;fill-opacity:0.779199;stroke:#ff7f0e;stroke-opacity:0.779199;" x="137.376594" xlink:href="#C2_0_4671e54b0c" y="182.530636"/>
    </g>
    <g clip-path="url(#p7be75723a5)">
     <use style="fill:#ff7f0e;fill-opacity:0.843533;stroke:#ff7f0e;stroke-opacity:0.843533;" x="142.804459" xlink:href="#C2_0_4671e54b0c" y="182.672326"/>
    </g>
    <g clip-path="url(#p7be75723a5)">
     <use style="fill:#ff7f0e;fill-opacity:0.858779;stroke:#ff7f0e;stroke-opacity:0.858779;" x="142.775302" xlink:href="#C2_0_4671e54b0c" y="181.69327"/>
    </g>
    <g clip-path="url(#p7be75723a5)">
     <use style="fill:#ff7f0e;fill-opacity:0.874037;stroke:#ff7f0e;stroke-opacity:0.874037;" x="142.746123" xlink:href="#C2_0_4671e54b0c" y="180.713491"/>
    </g>
    <g clip-path="url(#p7be75723a5)">
     <use style="fill:#ff7f0e;fill-opacity:0.889305;stroke:#ff7f0e;stroke-opacity:0.889305;" x="142.716922" xlink:href="#C2_0_4671e54b0c" y="179.732989"/>
    </g>
    <g clip-path="url(#p7be75723a5)">
     <use style="fill:#ff7f0e;fill-opacity:0.953983;stroke:#ff7f0e;stroke-opacity:0.953983;" x="148.167644" xlink:href="#C2_0_4671e54b0c" y="179.870684"/>
    </g>
    <g clip-path="url(#p7be75723a5)">
     <use style="fill:#ff7f0e;fill-opacity:0.969311;stroke:#ff7f0e;stroke-opacity:0.969311;" x="148.140392" xlink:href="#C2_0_4671e54b0c" y="178.887974"/>
    </g>
    <g clip-path="url(#p7be75723a5)">
     <use style="fill:#ff7f0e;fill-opacity:0.98465;stroke:#ff7f0e;stroke-opacity:0.98465;" x="148.113121" xlink:href="#C2_0_4671e54b0c" y="177.904536"/>
    </g>
    <g clip-path="url(#p7be75723a5)">
     <use style="fill:#ff7f0e;stroke:#ff7f0e;" x="148.085829" xlink:href="#C2_0_4671e54b0c" y="176.92037"/>
    </g>
   </g>
   <g id="legend_1">
    <g id="patch_6">
     <path d="M 7 96.06875 
L 94.892188 96.06875 
Q 96.892188 96.06875 96.892188 94.06875 
L 96.892188 7 
Q 96.892188 5 94.892188 5 
L 7 5 
Q 5 5 5 7 
L 5 94.06875 
Q 5 96.06875 7 96.06875 
z
" style="fill:#ffffff;opacity:0.8;stroke:#cccccc;stroke-linejoin:miter;"/>
    </g>
    <g id="Path3DCollection_4">
     <defs>
      <path d="M 0 2.236068 
C 0.593012 2.236068 1.161816 2.000462 1.581139 1.581139 
C 2.000462 1.161816 2.236068 0.593012 2.236068 0 
C 2.236068 -0.593012 2.000462 -1.161816 1.581139 -1.581139 
C 1.161816 -2.000462 0.593012 -2.236068 0 -2.236068 
C -0.593012 -2.236068 -1.161816 -2.000462 -1.581139 -1.581139 
C -2.000462 -1.161816 -2.236068 -0.593012 -2.236068 0 
C -2.236068 0.593012 -2.000462 1.161816 -1.581139 1.581139 
C -1.161816 2.000462 -0.593012 2.236068 0 2.236068 
z
" id="m8f91c272ef" style="stroke:#1f77b4;"/>
     </defs>
     <g>
      <use style="fill:#1f77b4;stroke:#1f77b4;" x="19" xlink:href="#m8f91c272ef" y="13.973437"/>
     </g>
    </g>
    <g id="text_25">
     <!-- Employee1 -->
     <defs>
      <path d="M 9.8125 72.90625 
L 55.90625 72.90625 
L 55.90625 64.59375 
L 19.671875 64.59375 
L 19.671875 43.015625 
L 54.390625 43.015625 
L 54.390625 34.71875 
L 19.671875 34.71875 
L 19.671875 8.296875 
L 56.78125 8.296875 
L 56.78125 0 
L 9.8125 0 
z
" id="DejaVuSans-69"/>
      <path d="M 9.421875 75.984375 
L 18.40625 75.984375 
L 18.40625 0 
L 9.421875 0 
z
" id="DejaVuSans-108"/>
     </defs>
     <g transform="translate(37 16.598437)scale(0.1 -0.1)">
      <use xlink:href="#DejaVuSans-69"/>
      <use x="63.183594" xlink:href="#DejaVuSans-109"/>
      <use x="160.595703" xlink:href="#DejaVuSans-112"/>
      <use x="224.072266" xlink:href="#DejaVuSans-108"/>
      <use x="251.855469" xlink:href="#DejaVuSans-111"/>
      <use x="313.037109" xlink:href="#DejaVuSans-121"/>
      <use x="372.216797" xlink:href="#DejaVuSans-101"/>
      <use x="433.740234" xlink:href="#DejaVuSans-101"/>
      <use x="495.263672" xlink:href="#DejaVuSans-49"/>
     </g>
    </g>
    <g id="Path3DCollection_5">
     <defs>
      <path d="M 0 2.236068 
C 0.593012 2.236068 1.161816 2.000462 1.581139 1.581139 
C 2.000462 1.161816 2.236068 0.593012 2.236068 0 
C 2.236068 -0.593012 2.000462 -1.161816 1.581139 -1.581139 
C 1.161816 -2.000462 0.593012 -2.236068 0 -2.236068 
C -0.593012 -2.236068 -1.161816 -2.000462 -1.581139 -1.581139 
C -2.000462 -1.161816 -2.236068 -0.593012 -2.236068 0 
C -2.236068 0.593012 -2.000462 1.161816 -1.581139 1.581139 
C -1.161816 2.000462 -0.593012 2.236068 0 2.236068 
z
" id="m2b8032d090" style="stroke:#ff7f0e;"/>
     </defs>
     <g>
      <use style="fill:#ff7f0e;stroke:#ff7f0e;" x="19" xlink:href="#m2b8032d090" y="28.651563"/>
     </g>
    </g>
    <g id="text_26">
     <!-- Employee2 -->
     <g transform="translate(37 31.276563)scale(0.1 -0.1)">
      <use xlink:href="#DejaVuSans-69"/>
      <use x="63.183594" xlink:href="#DejaVuSans-109"/>
      <use x="160.595703" xlink:href="#DejaVuSans-112"/>
      <use x="224.072266" xlink:href="#DejaVuSans-108"/>
      <use x="251.855469" xlink:href="#DejaVuSans-111"/>
      <use x="313.037109" xlink:href="#DejaVuSans-121"/>
      <use x="372.216797" xlink:href="#DejaVuSans-101"/>
      <use x="433.740234" xlink:href="#DejaVuSans-101"/>
      <use x="495.263672" xlink:href="#DejaVuSans-50"/>
     </g>
    </g>
    <g id="Path3DCollection_6">
     <defs>
      <path d="M 0 2.236068 
C 0.593012 2.236068 1.161816 2.000462 1.581139 1.581139 
C 2.000462 1.161816 2.236068 0.593012 2.236068 0 
C 2.236068 -0.593012 2.000462 -1.161816 1.581139 -1.581139 
C 1.161816 -2.000462 0.593012 -2.236068 0 -2.236068 
C -0.593012 -2.236068 -1.161816 -2.000462 -1.581139 -1.581139 
C -2.000462 -1.161816 -2.236068 -0.593012 -2.236068 0 
C -2.236068 0.593012 -2.000462 1.161816 -1.581139 1.581139 
C -1.161816 2.000462 -0.593012 2.236068 0 2.236068 
z
" id="mbabec55b84" style="stroke:#2ca02c;"/>
     </defs>
     <g>
      <use style="fill:#2ca02c;stroke:#2ca02c;" x="19" xlink:href="#mbabec55b84" y="43.329687"/>
     </g>
    </g>
    <g id="text_27">
     <!-- Employee3 -->
     <g transform="translate(37 45.954687)scale(0.1 -0.1)">
      <use xlink:href="#DejaVuSans-69"/>
      <use x="63.183594" xlink:href="#DejaVuSans-109"/>
      <use x="160.595703" xlink:href="#DejaVuSans-112"/>
      <use x="224.072266" xlink:href="#DejaVuSans-108"/>
      <use x="251.855469" xlink:href="#DejaVuSans-111"/>
      <use x="313.037109" xlink:href="#DejaVuSans-121"/>
      <use x="372.216797" xlink:href="#DejaVuSans-101"/>
      <use x="433.740234" xlink:href="#DejaVuSans-101"/>
      <use x="495.263672" xlink:href="#DejaVuSans-51"/>
     </g>
    </g>
    <g id="Path3DCollection_7">
     <defs>
      <path d="M 0 2.236068 
C 0.593012 2.236068 1.161816 2.000462 1.581139 1.581139 
C 2.000462 1.161816 2.236068 0.593012 2.236068 0 
C 2.236068 -0.593012 2.000462 -1.161816 1.581139 -1.581139 
C 1.161816 -2.000462 0.593012 -2.236068 0 -2.236068 
C -0.593012 -2.236068 -1.161816 -2.000462 -1.581139 -1.581139 
C -2.000462 -1.161816 -2.236068 -0.593012 -2.236068 0 
C -2.236068 0.593012 -2.000462 1.161816 -1.581139 1.581139 
C -1.161816 2.000462 -0.593012 2.236068 0 2.236068 
z
" id="m6f6de936a7" style="stroke:#d62728;"/>
     </defs>
     <g>
      <use style="fill:#d62728;stroke:#d62728;" x="19" xlink:href="#m6f6de936a7" y="58.007812"/>
     </g>
    </g>
    <g id="text_28">
     <!-- Employee4 -->
     <g transform="translate(37 60.632812)scale(0.1 -0.1)">
      <use xlink:href="#DejaVuSans-69"/>
      <use x="63.183594" xlink:href="#DejaVuSans-109"/>
      <use x="160.595703" xlink:href="#DejaVuSans-112"/>
      <use x="224.072266" xlink:href="#DejaVuSans-108"/>
      <use x="251.855469" xlink:href="#DejaVuSans-111"/>
      <use x="313.037109" xlink:href="#DejaVuSans-121"/>
      <use x="372.216797" xlink:href="#DejaVuSans-101"/>
      <use x="433.740234" xlink:href="#DejaVuSans-101"/>
      <use x="495.263672" xlink:href="#DejaVuSans-52"/>
     </g>
    </g>
    <g id="Path3DCollection_8">
     <defs>
      <path d="M 0 2.236068 
C 0.593012 2.236068 1.161816 2.000462 1.581139 1.581139 
C 2.000462 1.161816 2.236068 0.593012 2.236068 0 
C 2.236068 -0.593012 2.000462 -1.161816 1.581139 -1.581139 
C 1.161816 -2.000462 0.593012 -2.236068 0 -2.236068 
C -0.593012 -2.236068 -1.161816 -2.000462 -1.581139 -1.581139 
C -2.000462 -1.161816 -2.236068 -0.593012 -2.236068 0 
C -2.236068 0.593012 -2.000462 1.161816 -1.581139 1.581139 
C -1.161816 2.000462 -0.593012 2.236068 0 2.236068 
z
" id="mca2eb070f2" style="stroke:#9467bd;"/>
     </defs>
     <g>
      <use style="fill:#9467bd;stroke:#9467bd;" x="19" xlink:href="#mca2eb070f2" y="72.685937"/>
     </g>
    </g>
    <g id="text_29">
     <!-- Employee5 -->
     <g transform="translate(37 75.310937)scale(0.1 -0.1)">
      <use xlink:href="#DejaVuSans-69"/>
      <use x="63.183594" xlink:href="#DejaVuSans-109"/>
      <use x="160.595703" xlink:href="#DejaVuSans-112"/>
      <use x="224.072266" xlink:href="#DejaVuSans-108"/>
      <use x="251.855469" xlink:href="#DejaVuSans-111"/>
      <use x="313.037109" xlink:href="#DejaVuSans-121"/>
      <use x="372.216797" xlink:href="#DejaVuSans-101"/>
      <use x="433.740234" xlink:href="#DejaVuSans-101"/>
      <use x="495.263672" xlink:href="#DejaVuSans-53"/>
     </g>
    </g>
    <g id="Path3DCollection_9">
     <defs>
      <path d="M 0 2.236068 
C 0.593012 2.236068 1.161816 2.000462 1.581139 1.581139 
C 2.000462 1.161816 2.236068 0.593012 2.236068 0 
C 2.236068 -0.593012 2.000462 -1.161816 1.581139 -1.581139 
C 1.161816 -2.000462 0.593012 -2.236068 0 -2.236068 
C -0.593012 -2.236068 -1.161816 -2.000462 -1.581139 -1.581139 
C -2.000462 -1.161816 -2.236068 -0.593012 -2.236068 0 
C -2.236068 0.593012 -2.000462 1.161816 -1.581139 1.581139 
C -1.161816 2.000462 -0.593012 2.236068 0 2.236068 
z
" id="m7bbfa837a6" style="stroke:#8c564b;"/>
     </defs>
     <g>
      <use style="fill:#8c564b;stroke:#8c564b;" x="19" xlink:href="#m7bbfa837a6" y="87.364062"/>
     </g>
    </g>
    <g id="text_30">
     <!-- Employee6 -->
     <g transform="translate(37 89.989062)scale(0.1 -0.1)">
      <use xlink:href="#DejaVuSans-69"/>
      <use x="63.183594" xlink:href="#DejaVuSans-109"/>
      <use x="160.595703" xlink:href="#DejaVuSans-112"/>
      <use x="224.072266" xlink:href="#DejaVuSans-108"/>
      <use x="251.855469" xlink:href="#DejaVuSans-111"/>
      <use x="313.037109" xlink:href="#DejaVuSans-121"/>
      <use x="372.216797" xlink:href="#DejaVuSans-101"/>
      <use x="433.740234" xlink:href="#DejaVuSans-101"/>
      <use x="495.263672" xlink:href="#DejaVuSans-54"/>
     </g>
    </g>
   </g>
   <g id="Path3DCollection_10">
    <defs>
     <path d="M 0 2.236068 
C 0.593012 2.236068 1.161816 2.000462 1.581139 1.581139 
C 2.000462 1.161816 2.236068 0.593012 2.236068 0 
C 2.236068 -0.593012 2.000462 -1.161816 1.581139 -1.581139 
C 1.161816 -2.000462 0.593012 -2.236068 0 -2.236068 
C -0.593012 -2.236068 -1.161816 -2.000462 -1.581139 -1.581139 
C -2.000462 -1.161816 -2.236068 -0.593012 -2.236068 0 
C -2.236068 0.593012 -2.000462 1.161816 -1.581139 1.581139 
C -1.161816 2.000462 -0.593012 2.236068 0 2.236068 
z
" id="C3_0_7179eca98d"/>
    </defs>
    <g clip-path="url(#p7be75723a5)">
     <use style="fill:#9467bd;fill-opacity:0.3;stroke:#9467bd;stroke-opacity:0.3;" x="295.229017" xlink:href="#C3_0_7179eca98d" y="107.449045"/>
    </g>
    <g clip-path="url(#p7be75723a5)">
     <use style="fill:#9467bd;fill-opacity:0.339858;stroke:#9467bd;stroke-opacity:0.339858;" x="295.256062" xlink:href="#C3_0_7179eca98d" y="106.44337"/>
    </g>
    <g clip-path="url(#p7be75723a5)">
     <use style="fill:#9467bd;fill-opacity:0.379745;stroke:#9467bd;stroke-opacity:0.379745;" x="295.283127" xlink:href="#C3_0_7179eca98d" y="105.436953"/>
    </g>
    <g clip-path="url(#p7be75723a5)">
     <use style="fill:#9467bd;fill-opacity:0.419662;stroke:#9467bd;stroke-opacity:0.419662;" x="295.310212" xlink:href="#C3_0_7179eca98d" y="104.429794"/>
    </g>
    <g clip-path="url(#p7be75723a5)">
     <use style="fill:#9467bd;fill-opacity:0.588753;stroke:#9467bd;stroke-opacity:0.588753;" x="300.993077" xlink:href="#C3_0_7179eca98d" y="104.44974"/>
    </g>
    <g clip-path="url(#p7be75723a5)">
     <use style="fill:#9467bd;fill-opacity:0.628824;stroke:#9467bd;stroke-opacity:0.628824;" x="301.022324" xlink:href="#C3_0_7179eca98d" y="103.440271"/>
    </g>
    <g clip-path="url(#p7be75723a5)">
     <use style="fill:#9467bd;fill-opacity:0.668925;stroke:#9467bd;stroke-opacity:0.668925;" x="301.051593" xlink:href="#C3_0_7179eca98d" y="102.430056"/>
    </g>
    <g clip-path="url(#p7be75723a5)">
     <use style="fill:#9467bd;fill-opacity:0.709056;stroke:#9467bd;stroke-opacity:0.709056;" x="301.080884" xlink:href="#C3_0_7179eca98d" y="101.419093"/>
    </g>
    <g clip-path="url(#p7be75723a5)">
     <use style="fill:#9467bd;fill-opacity:0.879052;stroke:#9467bd;stroke-opacity:0.879052;" x="306.787996" xlink:href="#C3_0_7179eca98d" y="101.434378"/>
    </g>
    <g clip-path="url(#p7be75723a5)">
     <use style="fill:#9467bd;fill-opacity:0.919338;stroke:#9467bd;stroke-opacity:0.919338;" x="306.819469" xlink:href="#C3_0_7179eca98d" y="100.421089"/>
    </g>
    <g clip-path="url(#p7be75723a5)">
     <use style="fill:#9467bd;fill-opacity:0.959654;stroke:#9467bd;stroke-opacity:0.959654;" x="306.850965" xlink:href="#C3_0_7179eca98d" y="99.407048"/>
    </g>
    <g clip-path="url(#p7be75723a5)">
     <use style="fill:#9467bd;stroke:#9467bd;" x="306.882484" xlink:href="#C3_0_7179eca98d" y="98.392256"/>
    </g>
   </g>
   <g id="Path3DCollection_11">
    <defs>
     <path d="M 0 2.236068 
C 0.593012 2.236068 1.161816 2.000462 1.581139 1.581139 
C 2.000462 1.161816 2.236068 0.593012 2.236068 0 
C 2.236068 -0.593012 2.000462 -1.161816 1.581139 -1.581139 
C 1.161816 -2.000462 0.593012 -2.236068 0 -2.236068 
C -0.593012 -2.236068 -1.161816 -2.000462 -1.581139 -1.581139 
C -2.000462 -1.161816 -2.236068 -0.593012 -2.236068 0 
C -2.236068 0.593012 -2.000462 1.161816 -1.581139 1.581139 
C -1.161816 2.000462 -0.593012 2.236068 0 2.236068 
z
" id="C4_0_721b602959"/>
    </defs>
    <g clip-path="url(#p7be75723a5)">
     <use style="fill:#d62728;fill-opacity:0.3;stroke:#d62728;stroke-opacity:0.3;" x="229.604677" xlink:href="#C4_0_721b602959" y="134.979433"/>
    </g>
    <g clip-path="url(#p7be75723a5)">
     <use style="fill:#d62728;fill-opacity:0.318104;stroke:#d62728;stroke-opacity:0.318104;" x="229.607525" xlink:href="#C4_0_721b602959" y="133.988622"/>
    </g>
    <g clip-path="url(#p7be75723a5)">
     <use style="fill:#d62728;fill-opacity:0.336221;stroke:#d62728;stroke-opacity:0.336221;" x="229.610376" xlink:href="#C4_0_721b602959" y="132.997083"/>
    </g>
    <g clip-path="url(#p7be75723a5)">
     <use style="fill:#d62728;fill-opacity:0.431151;stroke:#d62728;stroke-opacity:0.431151;" x="235.166991" xlink:href="#C4_0_721b602959" y="132.067525"/>
    </g>
    <g clip-path="url(#p7be75723a5)">
     <use style="fill:#d62728;fill-opacity:0.449351;stroke:#d62728;stroke-opacity:0.449351;" x="235.171892" xlink:href="#C4_0_721b602959" y="131.073009"/>
    </g>
    <g clip-path="url(#p7be75723a5)">
     <use style="fill:#d62728;fill-opacity:0.467564;stroke:#d62728;stroke-opacity:0.467564;" x="235.176798" xlink:href="#C4_0_721b602959" y="130.077762"/>
    </g>
    <g clip-path="url(#p7be75723a5)">
     <use style="fill:#d62728;fill-opacity:0.563001;stroke:#d62728;stroke-opacity:0.563001;" x="240.758942" xlink:href="#C4_0_721b602959" y="129.140102"/>
    </g>
    <g clip-path="url(#p7be75723a5)">
     <use style="fill:#d62728;fill-opacity:0.581298;stroke:#d62728;stroke-opacity:0.581298;" x="240.765918" xlink:href="#C4_0_721b602959" y="128.141856"/>
    </g>
    <g clip-path="url(#p7be75723a5)">
     <use style="fill:#d62728;fill-opacity:0.599609;stroke:#d62728;stroke-opacity:0.599609;" x="240.7729" xlink:href="#C4_0_721b602959" y="127.142874"/>
    </g>
    <g clip-path="url(#p7be75723a5)">
     <use style="fill:#d62728;fill-opacity:0.695555;stroke:#d62728;stroke-opacity:0.695555;" x="246.380767" xlink:href="#C4_0_721b602959" y="126.197039"/>
    </g>
    <g clip-path="url(#p7be75723a5)">
     <use style="fill:#d62728;fill-opacity:0.71395;stroke:#d62728;stroke-opacity:0.71395;" x="246.38984" xlink:href="#C4_0_721b602959" y="125.195038"/>
    </g>
    <g clip-path="url(#p7be75723a5)">
     <use style="fill:#d62728;fill-opacity:0.732359;stroke:#d62728;stroke-opacity:0.732359;" x="246.398921" xlink:href="#C4_0_721b602959" y="124.192296"/>
    </g>
    <g clip-path="url(#p7be75723a5)">
     <use style="fill:#d62728;fill-opacity:0.82882;stroke:#d62728;stroke-opacity:0.82882;" x="252.032706" xlink:href="#C4_0_721b602959" y="123.238212"/>
    </g>
    <g clip-path="url(#p7be75723a5)">
     <use style="fill:#d62728;fill-opacity:0.847313;stroke:#d62728;stroke-opacity:0.847313;" x="252.043899" xlink:href="#C4_0_721b602959" y="122.232429"/>
    </g>
    <g clip-path="url(#p7be75723a5)">
     <use style="fill:#d62728;fill-opacity:0.865821;stroke:#d62728;stroke-opacity:0.865821;" x="252.055101" xlink:href="#C4_0_721b602959" y="121.225901"/>
    </g>
    <g clip-path="url(#p7be75723a5)">
     <use style="fill:#d62728;fill-opacity:0.9628;stroke:#d62728;stroke-opacity:0.9628;" x="257.715003" xlink:href="#C4_0_721b602959" y="120.263492"/>
    </g>
    <g clip-path="url(#p7be75723a5)">
     <use style="fill:#d62728;fill-opacity:0.981393;stroke:#d62728;stroke-opacity:0.981393;" x="257.728338" xlink:href="#C4_0_721b602959" y="119.253902"/>
    </g>
    <g clip-path="url(#p7be75723a5)">
     <use style="fill:#d62728;stroke:#d62728;" x="257.741683" xlink:href="#C4_0_721b602959" y="118.243561"/>
    </g>
   </g>
   <g id="Path3DCollection_12">
    <defs>
     <path d="M 0 2.236068 
C 0.593012 2.236068 1.161816 2.000462 1.581139 1.581139 
C 2.000462 1.161816 2.236068 0.593012 2.236068 0 
C 2.236068 -0.593012 2.000462 -1.161816 1.581139 -1.581139 
C 1.161816 -2.000462 0.593012 -2.236068 0 -2.236068 
C -0.593012 -2.236068 -1.161816 -2.000462 -1.581139 -1.581139 
C -2.000462 -1.161816 -2.236068 -0.593012 -2.236068 0 
C -2.236068 0.593012 -2.000462 1.161816 -1.581139 1.581139 
C -1.161816 2.000462 -0.593012 2.236068 0 2.236068 
z
" id="C5_0_9440b67dcc"/>
    </defs>
    <g clip-path="url(#p7be75723a5)">
     <use style="fill:#8c564b;fill-opacity:0.3;stroke:#8c564b;stroke-opacity:0.3;" x="350.015149" xlink:href="#C5_0_9440b67dcc" y="77.656818"/>
    </g>
    <g clip-path="url(#p7be75723a5)">
     <use style="fill:#8c564b;fill-opacity:0.328111;stroke:#8c564b;stroke-opacity:0.328111;" x="350.062496" xlink:href="#C5_0_9440b67dcc" y="76.637735"/>
    </g>
    <g clip-path="url(#p7be75723a5)">
     <use style="fill:#8c564b;fill-opacity:0.356242;stroke:#8c564b;stroke-opacity:0.356242;" x="350.109878" xlink:href="#C5_0_9440b67dcc" y="75.617899"/>
    </g>
    <g clip-path="url(#p7be75723a5)">
     <use style="fill:#8c564b;fill-opacity:0.384394;stroke:#8c564b;stroke-opacity:0.384394;" x="350.157296" xlink:href="#C5_0_9440b67dcc" y="74.59731"/>
    </g>
    <g clip-path="url(#p7be75723a5)">
     <use style="fill:#8c564b;fill-opacity:0.50365;stroke:#8c564b;stroke-opacity:0.50365;" x="355.939623" xlink:href="#C5_0_9440b67dcc" y="74.570605"/>
    </g>
    <g clip-path="url(#p7be75723a5)">
     <use style="fill:#8c564b;fill-opacity:0.531911;stroke:#8c564b;stroke-opacity:0.531911;" x="355.989291" xlink:href="#C5_0_9440b67dcc" y="73.547651"/>
    </g>
    <g clip-path="url(#p7be75723a5)">
     <use style="fill:#8c564b;fill-opacity:0.560193;stroke:#8c564b;stroke-opacity:0.560193;" x="356.038996" xlink:href="#C5_0_9440b67dcc" y="72.52394"/>
    </g>
    <g clip-path="url(#p7be75723a5)">
     <use style="fill:#8c564b;fill-opacity:0.588497;stroke:#8c564b;stroke-opacity:0.588497;" x="356.088738" xlink:href="#C5_0_9440b67dcc" y="71.499469"/>
    </g>
    <g clip-path="url(#p7be75723a5)">
     <use style="fill:#8c564b;fill-opacity:0.708393;stroke:#8c564b;stroke-opacity:0.708393;" x="361.89589" xlink:href="#C5_0_9440b67dcc" y="71.467831"/>
    </g>
    <g clip-path="url(#p7be75723a5)">
     <use style="fill:#8c564b;fill-opacity:0.736806;stroke:#8c564b;stroke-opacity:0.736806;" x="361.947904" xlink:href="#C5_0_9440b67dcc" y="70.440979"/>
    </g>
    <g clip-path="url(#p7be75723a5)">
     <use style="fill:#8c564b;fill-opacity:0.76524;stroke:#8c564b;stroke-opacity:0.76524;" x="361.999956" xlink:href="#C5_0_9440b67dcc" y="69.413364"/>
    </g>
    <g clip-path="url(#p7be75723a5)">
     <use style="fill:#8c564b;fill-opacity:0.793696;stroke:#8c564b;stroke-opacity:0.793696;" x="362.052047" xlink:href="#C5_0_9440b67dcc" y="68.384985"/>
    </g>
    <g clip-path="url(#p7be75723a5)">
     <use style="fill:#8c564b;fill-opacity:0.914237;stroke:#8c564b;stroke-opacity:0.914237;" x="367.884208" xlink:href="#C5_0_9440b67dcc" y="68.34836"/>
    </g>
    <g clip-path="url(#p7be75723a5)">
     <use style="fill:#8c564b;fill-opacity:0.942803;stroke:#8c564b;stroke-opacity:0.942803;" x="367.938592" xlink:href="#C5_0_9440b67dcc" y="67.317583"/>
    </g>
    <g clip-path="url(#p7be75723a5)">
     <use style="fill:#8c564b;fill-opacity:0.971391;stroke:#8c564b;stroke-opacity:0.971391;" x="367.993016" xlink:href="#C5_0_9440b67dcc" y="66.286038"/>
    </g>
    <g clip-path="url(#p7be75723a5)">
     <use style="fill:#8c564b;stroke:#8c564b;" x="368.04748" xlink:href="#C5_0_9440b67dcc" y="65.253723"/>
    </g>
   </g>
  </g>
 </g>
 <defs>
  <clipPath id="p7be75723a5">
   <rect height="288" width="432" x="0" y="0"/>
  </clipPath>
 </defs>
</svg>
